<svg xmlns="http://www.w3.org/2000/svg" viewBox="0 0 630 306" width="630" height="306" font-family="'Segoe UI', system-ui, -apple-system, sans-serif">
  <defs>
    <marker id="arr" viewBox="0 0 10 10" refX="9" refY="5" markerWidth="7" markerHeight="7" orient="auto-start-reverse">
      <path d="M 0 1 L 9 5 L 0 9 z" fill="#757575"/>
    </marker>
    <marker id="arr-g" viewBox="0 0 10 10" refX="9" refY="5" markerWidth="7" markerHeight="7" orient="auto-start-reverse">
      <path d="M 0 1 L 9 5 L 0 9 z" fill="#4caf50"/>
    </marker>
  </defs>

  <!-- Background -->
  <rect width="630" height="306" rx="6" fill="#fafafa"/>

  <!-- ===== config.optim pill ===== -->
  <rect x="72" y="16" width="96" height="28" rx="14" fill="#ffe0b2" stroke="#ffb74d" stroke-width="1"/>
  <text x="120" y="35" text-anchor="middle" font-size="10.5" font-weight="500" fill="#e65100">config.optim</text>

  <!-- Arrow: config → Optimize -->
  <line x1="120" y1="44" x2="120" y2="87" stroke="#757575" stroke-width="1" marker-end="url(#arr)"/>

  <!-- ===== Autoconf Loop boundary ===== -->
  <rect x="30" y="62" width="418" height="148" rx="10" fill="none" stroke="#4caf50" stroke-width="1.5" stroke-dasharray="7,4"/>
  <text x="239" y="80" text-anchor="middle" font-size="10" fill="#4caf50" font-weight="600" font-style="italic">Autoconf loop</text>

  <!-- ===== Optimize ===== -->
  <rect x="68" y="100" width="104" height="44" rx="6" fill="#c8e6c9" stroke="#66bb6a" stroke-width="1.2"/>
  <text x="120" y="127" text-anchor="middle" font-size="13" font-weight="600" fill="#1a2332">Optimize</text>

  <!-- Arrow: Optimize → Analyze -->
  <line x1="172" y1="122" x2="206" y2="122" stroke="#757575" stroke-width="1" marker-end="url(#arr)"/>

  <!-- ===== Analyze ===== -->
  <rect x="210" y="100" width="90" height="44" rx="5" fill="#bbdefb" stroke="#64b5f6" stroke-width="1.2"/>
  <text x="255" y="127" text-anchor="middle" font-size="13" font-weight="600" fill="#1a2332">Analyze</text>

  <!-- Arrow: Analyze → diamond -->
  <line x1="300" y1="122" x2="328" y2="122" stroke="#757575" stroke-width="1" marker-end="url(#arr)"/>

  <!-- ===== Diamond: new flags? ===== -->
  <polygon points="328,122 358,102 388,122 358,142" fill="#fff9c4" stroke="#fdd835" stroke-width="1.2"/>
  <text x="358" y="120" text-anchor="middle" font-size="9" font-weight="600" fill="#1a2332">new</text>
  <text x="358" y="131" text-anchor="middle" font-size="9" font-weight="600" fill="#1a2332">flags?</text>

  <!-- ===== YES path: loop back to Optimize ===== -->
  <path d="M 358 142 L 358 192 L 120 192 L 120 144"
        fill="none" stroke="#4caf50" stroke-width="1.2" stroke-dasharray="6,3" marker-end="url(#arr-g)"/>
  <text x="366" y="170" font-size="9" fill="#4caf50" font-weight="600">yes</text>

  <!-- ===== NO path: exit loop to the right → Final Analyze ===== -->
  <line x1="388" y1="122" x2="484" y2="122" stroke="#757575" stroke-width="1" marker-end="url(#arr)"/>
  <text x="410" y="114" font-size="9" fill="#78909c" font-weight="600">no</text>

  <!-- ===== Final Analyze ===== -->
  <rect x="488" y="100" width="76" height="44" rx="5" fill="#bbdefb" stroke="#64b5f6" stroke-width="1.2"/>
  <text x="526" y="119" text-anchor="middle" font-size="11" font-weight="600" fill="#1a2332">Final</text>
  <text x="526" y="134" text-anchor="middle" font-size="11" font-weight="600" fill="#1a2332">Analyze</text>

  <!-- Arrow: Final Analyze → has_errors? -->
  <line x1="526" y1="144" x2="526" y2="172" stroke="#757575" stroke-width="1" marker-end="url(#arr)"/>

  <!-- ===== Diamond: has_errors? ===== -->
  <polygon points="494,196 526,176 558,196 526,216" fill="#fff9c4" stroke="#fdd835" stroke-width="1.2"/>
  <text x="526" y="194" text-anchor="middle" font-size="9" font-weight="600" fill="#1a2332">has</text>
  <text x="526" y="205" text-anchor="middle" font-size="9" font-weight="600" fill="#1a2332">errors?</text>

  <!-- YES → RuntimeError -->
  <line x1="526" y1="216" x2="526" y2="240" stroke="#757575" stroke-width="1" marker-end="url(#arr)"/>
  <text x="536" y="232" font-size="9" fill="#78909c" font-weight="600">yes</text>

  <rect x="486" y="244" width="80" height="30" rx="5" fill="#ffcdd2" stroke="#ef5350" stroke-width="1.2"/>
  <text x="526" y="264" text-anchor="middle" font-size="11" font-weight="600" fill="#c62828">RuntimeError</text>

  <!-- NO → done -->
  <line x1="558" y1="196" x2="586" y2="196" stroke="#757575" stroke-width="1" marker-end="url(#arr)"/>
  <text x="572" y="189" text-anchor="middle" font-size="9" fill="#78909c" font-weight="600">no</text>

  <rect x="590" y="183" width="16" height="26" rx="3" fill="#c8e6c9" stroke="#66bb6a" stroke-width="1"/>
  <text x="598" y="200" text-anchor="middle" font-size="7" fill="#2e7d32">▸</text>

  <!-- ===== Legend ===== -->
  <rect x="20" y="286" width="12" height="12" rx="3" fill="#c8e6c9" stroke="#66bb6a" stroke-width="0.8"/>
  <text x="38" y="296" font-size="8.5" fill="#616161">Transform</text>

  <rect x="106" y="286" width="12" height="12" rx="3" fill="#bbdefb" stroke="#64b5f6" stroke-width="0.8"/>
  <text x="124" y="296" font-size="8.5" fill="#616161">Analysis</text>

  <polygon points="192,292 202,286 212,292 202,298" fill="#fff9c4" stroke="#fdd835" stroke-width="0.8"/>
  <text x="218" y="296" font-size="8.5" fill="#616161">Decision</text>

  <rect x="270" y="286" width="12" height="12" rx="3" fill="#ffcdd2" stroke="#ef5350" stroke-width="0.8"/>
  <text x="288" y="296" font-size="8.5" fill="#616161">Error</text>

  <line x1="322" y1="292" x2="348" y2="292" stroke="#4caf50" stroke-width="1.2" stroke-dasharray="5,3"/>
  <text x="354" y="296" font-size="8.5" fill="#616161">Autoconf loop</text>
</svg>
